 <!DOCTYPE svg PUBLIC "-//W3C//DTD SVG 1.1//EN" "http://www.w3.org/Graphics/SVG/1.1/DTD/svg11.dtd">
<svg xmlns="http://www.w3.org/2000/svg" width="865.76" height="682.89" viewBox="0 0 865.76 682.89">
  <defs>
<style xmlns="http://www.w3.org/1999/xhtml">*, ::after, ::before { box-sizing: border-box; }
img, svg { vertical-align: middle; }
</style>
<style xmlns="http://www.w3.org/1999/xhtml">*, body, html { -webkit-font-smoothing: antialiased; }
img, svg { max-width: 100%; }
</style>
</defs>
<rect x="177.22" y="581.03" width="22.25" height="40.12" fill="#e0e0e0"/>
  <rect x="275.55" y="581.03" width="22.25" height="40.12" fill="#e0e0e0"/>
  <rect x="128.31" y="340.52" width="184.31" height="240.52" fill="#e0e0e0"/>
  <rect x="94.55" y="340.52" width="179.53" height="240.52" fill="#f5f5f5"/>
  <rect x="110.41" y="581.03" width="22.25" height="40.12" fill="#f5f5f5"/>
  <rect x="238.37" y="581.03" width="22.25" height="40.12" fill="#f5f5f5"/>
  <path d="M259.8,553.56V537.63c0-10.22-.09-25-.14-43.43l.25.23-154.23.13h0l.37-.36v59.36l-.35-.34,110.38.15,32.08.1h.24l-32.08.09-110.62.17h-.35V493.64h.33l154.07.12H260V494c0,18.46-.12,33.33-.14,43.6v14.75A9.58,9.58,0,0,1,259.8,553.56Z" fill="#e0e0e0"/>
  <path d="M187.41,523.88a8.48,8.48,0,0,1-.29-1.1,4.64,4.64,0,0,0-1.7-2.4,4.45,4.45,0,0,0-4.19-.56,4.33,4.33,0,0,0,0,8.11,4.45,4.45,0,0,0,4.19-.56,4.67,4.67,0,0,0,1.7-2.39c.21-.7.22-1.11.29-1.1a2.12,2.12,0,0,1,0,1.17,4.64,4.64,0,0,1-1.67,2.72,4.84,4.84,0,0,1-4.67.78,4.95,4.95,0,0,1,0-9.36,4.86,4.86,0,0,1,4.67.78,4.62,4.62,0,0,1,1.67,2.79A2.13,2.13,0,0,1,187.41,523.88Z" fill="#e0e0e0"/>
  <path d="M259.8,482.46V466.53c0-10.23-.09-25.1-.14-43.45l.25.25-154.23.13h0l.37-.38v59.38l-.37-.29,110.39.15,32.08.1h.25l-32.08.1-110.62.17h-.35v-60.1h.33l154.07.12H260v.23c0,18.47-.12,33.34-.14,43.61v14.76A8.44,8.44,0,0,1,259.8,482.46Z" fill="#e0e0e0"/>
  <path d="M187.41,452.78a8.48,8.48,0,0,1-.29-1.1,4.64,4.64,0,0,0-1.7-2.4,4.45,4.45,0,0,0-4.19-.56,4.33,4.33,0,0,0,0,8.11,4.45,4.45,0,0,0,4.19-.56,4.67,4.67,0,0,0,1.7-2.39c.21-.7.22-1.11.29-1.1a2.08,2.08,0,0,1,0,1.16,4.62,4.62,0,0,1-1.67,2.79,4.86,4.86,0,0,1-4.67.78,4.95,4.95,0,0,1,0-9.36,4.86,4.86,0,0,1,4.67.78,4.62,4.62,0,0,1,1.67,2.79A2.11,2.11,0,0,1,187.41,452.78Z" fill="#e0e0e0"/>
  <path d="M259.8,412.31V396.4c0-10.24-.09-25-.14-43.46l.25.26-154.23.11h0l.37-.37v59.37l-.35-.35,110.38.17,32.08.1h.16l-32.09.1-110.62.15h-.35V352.4h.42l154.07.11H260v.25c0,18.47-.12,33.33-.14,43.61v14.76A8.85,8.85,0,0,1,259.8,412.31Z" fill="#e0e0e0"/>
  <path d="M187.41,382.63a8.48,8.48,0,0,1-.29-1.1,4.67,4.67,0,0,0-1.7-2.39,4.34,4.34,0,1,0,0,7,4.68,4.68,0,0,0,1.7-2.4,8.22,8.22,0,0,1,.29-1.11,2.15,2.15,0,0,1,0,1.18,4.62,4.62,0,0,1-1.67,2.79,4.91,4.91,0,0,1-4.73.74,5,5,0,1,1,4.67-8.6,4.68,4.68,0,0,1,1.68,2.79A2.24,2.24,0,0,1,187.41,382.63Z" fill="#e0e0e0"/>
  <path d="M620.29,582.72c-14.19,0-25.7,6.71-25.7,15s11.51,15,25.7,15S646,606,646,597.72,634.49,582.72,620.29,582.72Zm0,18.54c-4.69,0-8.5-2.07-8.5-4.61s3.81-4.62,8.5-4.62,8.51,2.07,8.51,4.62S625,601.26,620.29,601.26Z" fill="#e0e0e0"/>
  <rect x="21.71" y="87.94" width="264.82" height="199.81" transform="translate(-41.39 332.13) rotate(-87.06)" fill="#fafafa"/>
  <path d="M247.71,326H247L46.84,315.62v-.69L60.49,49.78h.69L261.43,60.07v.7ZM48.24,314.3,246.4,324.5,259.92,61.42,61.84,51.24Z" fill="#e0e0e0"/>
  <path d="M178.82,158.41A5.56,5.56,0,0,1,182,154a15,15,0,0,1,5.48-1.31,48.24,48.24,0,0,1,8.83-.24,9.15,9.15,0,0,1,4.18,1.17c2.69,1.71,3.35,5.42,2.79,8.54a5.25,5.25,0,0,1-1.62,3.29,5.66,5.66,0,0,1-1.82.87,37.76,37.76,0,0,1-17.31,1.39c-1.73-.26-3.73-.89-4.29-2.55" fill="#e0e0e0"/>
  <path d="M125.55,156.69a5.6,5.6,0,0,0-3.17-4.4A15.07,15.07,0,0,0,116.9,151a48.15,48.15,0,0,0-8.82-.24,9.15,9.15,0,0,0-4.18,1.17c-2.68,1.71-3.35,5.42-2.79,8.54a5.11,5.11,0,0,0,1.6,3.29,5.46,5.46,0,0,0,1.84.87,37.71,37.71,0,0,0,17.3,1.39c1.73-.26,3.74-.89,4.28-2.55" fill="#e0e0e0"/>
  <path d="M152.38,159.31c-10.71.26-24.2-1.22-27.89-2.25s-19.3-5.7-26.9,1.7-15.2,56.71-14.69,67S96.38,243,104.16,238.51s18.5-25.62,21.08-26,10,3.11,14.87-.35a45.28,45.28,0,0,0,7.25-6.22s9.68-.35,10.55-.35,4.18,6.57,8.81,7.95,13.14-1.21,14.34-1.73,9.34,15.35,17.64,23.34,23.71,3.11,24.53-9.52-13.82-58.4-18.83-65-23-4.72-30.62-2.43S159.12,159.13,152.38,159.31Z" fill="#ebebeb"/>
  <path d="M198.7,227.12c-8.37-8-16.42-23.86-17.64-23.34s-9.66,3.11-14.34,1.73-7.95-7.95-8.81-7.95-10.55.35-10.55.35a45.8,45.8,0,0,1-7.25,6.22c-4.84,3.46-12.28,0-14.87.35s-13.31,21.42-21.08,25.91c-7.29,4.19-19.17-1.77-21-10.95a54.94,54.94,0,0,0-.24,6.28c.52,10.2,13.48,17.28,21.26,12.79s18.5-25.62,21.08-26,10,3.11,14.87-.35a45.28,45.28,0,0,0,7.25-6.22s9.68-.35,10.55-.35,4.18,6.57,8.81,7.95,13.14-1.21,14.34-1.73,9.34,15.35,17.64,23.34,23.71,3.11,24.53-9.52a30.14,30.14,0,0,0-.32-5.85C220.5,230.71,206.48,234.51,198.7,227.12Z" fill="#e0e0e0"/>
  <circle cx="116.63" cy="178.13" r="15.33" fill="#e0e0e0"/>
  <circle cx="115.81" cy="176.12" r="15.36" fill="#f5f5f5"/>
  <path d="M206,178.92a15.35,15.35,0,1,1-15.34-15.34A15.34,15.34,0,0,1,206,178.92Z" fill="#e0e0e0"/>
  <circle cx="192.26" cy="176.73" r="15.33" transform="translate(-68.65 187.72) rotate(-45)" fill="#f5f5f5"/>
  <circle cx="170.64" cy="199.83" r="10.32" transform="translate(-63.05 320) rotate(-76.72)" fill="#f5f5f5"/>
  <circle cx="133.08" cy="199.83" r="10.32" transform="translate(-91.98 283.45) rotate(-76.72)" fill="#f5f5f5"/>
  <path d="M123.13,172.48h-3.75v-3.76a3.11,3.11,0,0,0-3.11-3.11H114a3.13,3.13,0,0,0-3.13,3.11v3.76h-3.75A3.12,3.12,0,0,0,104,175.6v2.27a3.12,3.12,0,0,0,3.11,3.12h3.72v3.75a3.14,3.14,0,0,0,3.13,3.12h2.27a3.12,3.12,0,0,0,3.11-3.12V181h3.75a3.14,3.14,0,0,0,3.13-3.12V175.6A3.13,3.13,0,0,0,123.13,172.48Z" fill="#e0e0e0"/>
  <path d="M196.92,169a4.52,4.52,0,1,1-4.53-4.51h0A4.52,4.52,0,0,1,196.92,169Z" fill="#e0e0e0"/>
  <path d="M206.05,177a4.52,4.52,0,1,1-4.54-4.51h0A4.52,4.52,0,0,1,206.05,177Z" fill="#e0e0e0"/>
  <path d="M196.92,184.33a4.52,4.52,0,1,1-4.51-4.52h0a4.5,4.5,0,0,1,4.5,4.51Z" fill="#e0e0e0"/>
  <path d="M187.43,177.12a4.52,4.52,0,1,1-4.54-4.5h0A4.52,4.52,0,0,1,187.43,177.12Z" fill="#e0e0e0"/>
  <path d="M173.78,158.26c-7.6,2.26-14.69.87-21.42,1.05a156.24,156.24,0,0,1-18.61-.84,12.61,12.61,0,0,0,.18,1.94q1,7,2,13.85a4.19,4.19,0,0,0,3.93,4.43,4.45,4.45,0,0,0,.73,0,151.68,151.68,0,0,0,16.49,1.1,36.42,36.42,0,0,0,11.48-1.24,3.46,3.46,0,0,0,1.4-.78,3.68,3.68,0,0,0,.68-1.28,64.16,64.16,0,0,0,3.74-18.38Z" fill="#e0e0e0"/>
  <path d="M76.14,63.43a4.19,4.19,0,1,1-4.26-4.11H72a4.12,4.12,0,0,1,4.19,4Z" fill="#e0e0e0"/>
  <path d="M124.18,133.21h5.68a1.2,1.2,0,0,1,.61.15,1.14,1.14,0,0,1,.6,1.06,1.09,1.09,0,0,1,0,.36c-.11.49-.24,1-.38,1.4a16.24,16.24,0,0,1-3.55,6.42,6.69,6.69,0,0,1-4.83,2.49,3.86,3.86,0,0,1-.68,0,5.59,5.59,0,0,1-3.87-2.79,12.72,12.72,0,0,1-1.69-6.82,18.69,18.69,0,0,1,.67-4.87,16.47,16.47,0,0,1,3.37-6.57,6.88,6.88,0,0,1,5.11-2.79,5,5,0,0,1,2.15.49,6.94,6.94,0,0,1,3.31,4.19,1.41,1.41,0,0,1,.14.57,1.24,1.24,0,0,1-1.23,1.21,1.21,1.21,0,0,1-.38,0,1.16,1.16,0,0,1-.78-.76v-.12a5.6,5.6,0,0,0-.68-1.39,3.23,3.23,0,0,0-2.79-1.55,3.17,3.17,0,0,0-1.87.68A9.93,9.93,0,0,0,120,129a16.75,16.75,0,0,0-1.39,6.39,11.38,11.38,0,0,0,1,5,3.26,3.26,0,0,0,3,2.22,4.07,4.07,0,0,0,2.79-1.65,15.09,15.09,0,0,0,2.92-5.27h-4.08c-.87-.14-1.39-.6-1.39-1.4a.82.82,0,0,1,.13-.4A1.25,1.25,0,0,1,124.18,133.21Z" fill="#e0e0e0"/>
  <path d="M143.48,122.13a1.91,1.91,0,0,0,.16.42q.36,1.23,4,21a.81.81,0,0,1,0,.31,1.28,1.28,0,0,1-.16.63,1.13,1.13,0,0,1-1,.61h-.2a1.12,1.12,0,0,1-.95-.84l-1.39-7h-7l-3.35,7a1.28,1.28,0,0,1-.11.24,1.39,1.39,0,0,1-1.06.59,1.23,1.23,0,0,1-1.21-1.22,1.09,1.09,0,0,1,0-.36c.21-.49.56-1.26,1-2.32q7.49-16,8.92-18.86a1.34,1.34,0,0,1,1.19-.85A1.27,1.27,0,0,1,143.48,122.13ZM142,126.85l-3.77,7.93h5.33Z" fill="#e0e0e0"/>
  <path d="M167.78,143.91h0c-.11.79-.51,1.18-1.21,1.18a1,1,0,0,1-.64-.18,1.41,1.41,0,0,1-.6-1.3q0-.24,1.39-12.55-3.63,7.65-5.7,12.05c-.29.63-.46,1-.5,1a1.41,1.41,0,0,1-1.2.88,1.5,1.5,0,0,1-.3,0,1.41,1.41,0,0,1-1-1.06l-2.65-12.93c-.61,4.64-1.23,8.91-1.84,12.77h0c-.11.8-.52,1.19-1.21,1.19a1.14,1.14,0,0,1-.65-.18,1.39,1.39,0,0,1-.59-1.3q0-.15,2.16-16.45c.37-2.79.57-4.31.61-4.53a1.43,1.43,0,0,1,.18-.5,1.17,1.17,0,0,1,1.1-.61h.35c.44.12.69.34.74.68q.31,1.71,2,9.94,1.2,6,1.52,7.7l8.29-17.26a2.06,2.06,0,0,1,.17-.33,1.39,1.39,0,0,1,1.09-.55,1.08,1.08,0,0,1,.55.15,1.22,1.22,0,0,1,.67,1c0,.3-.08.64-.12,1Q168.21,141.67,167.78,143.91Z" fill="#e0e0e0"/>
  <path d="M177.54,121.53h9.76a1.75,1.75,0,0,1,.56,0,1.11,1.11,0,0,1,.83,1.17.9.9,0,0,1-.09.46,1.48,1.48,0,0,1-1.23.81H178.6l-1.11,8.37h6.32a2,2,0,0,1,.69.14,1.17,1.17,0,0,1,.75,1.15,1.25,1.25,0,0,1-.08.42,1.4,1.4,0,0,1-1.25.82h-6.73l-1,7.77h8.76a2.08,2.08,0,0,1,.66.11,1.53,1.53,0,0,1,.79,1.53,1.38,1.38,0,0,1-1.25.87H175a1.17,1.17,0,0,1-.7-.2,1.41,1.41,0,0,1-.6-1.27q0-.21,2.79-20.92a1.25,1.25,0,0,1,.12-.43A1.13,1.13,0,0,1,177.54,121.53Z" fill="#e0e0e0"/>
  <path d="M119,249.34c-.15.82-.56,1.24-1.24,1.25a1,1,0,0,1-.64-.21,1.4,1.4,0,0,1-.59-1.27l2.79-20.92a4.17,4.17,0,0,1,0-.5,1.14,1.14,0,0,1,1.62-.55,1.21,1.21,0,0,1,.66,1l-.85,8.13q7.52-8.37,7.89-8.73a1.53,1.53,0,0,1,1.05-.55,1.2,1.2,0,0,1,.61.18,1.14,1.14,0,0,1,.59,1,1.82,1.82,0,0,1-.34,1q-.42.54-9.41,10.45l2.21,2c4.27,3.85,6.7,6.08,7.3,6.66a1.76,1.76,0,0,1,.57,1.07,1.1,1.1,0,0,1-.21.65,1.12,1.12,0,0,1-1,.57,1.71,1.71,0,0,1-1-.33q-.51-.37-9-8.23C119.52,245.84,119.2,248.26,119,249.34Z" fill="#e0e0e0"/>
  <path d="M137.24,249.43c-.14.83-.56,1.25-1.22,1.26a1.16,1.16,0,0,1-.65-.2,1.38,1.38,0,0,1-.59-1.28l2.79-20.92a3.38,3.38,0,0,1,0-.45,1.12,1.12,0,0,1,1.1-.74,1.31,1.31,0,0,1,.59.14,1.16,1.16,0,0,1,.64,1Q137.39,248.63,137.24,249.43Z" fill="#e0e0e0"/>
  <path d="M157.88,249.43c-.11.79-.52,1.19-1.21,1.2a1.56,1.56,0,0,1-1.3-.9l-7.7-17.62q-.15,1.26-.36,2.79-1.51,12.67-1.82,14.47c-.15.81-.56,1.23-1.25,1.25a1.1,1.1,0,0,1-.66-.21,1.41,1.41,0,0,1-.6-1.27q2.79-20.92,2.79-21a1.68,1.68,0,0,1,.17-.49,1.23,1.23,0,0,1,1.13-.63,1.29,1.29,0,0,1,1.28.6L156,244.87l2.24-16.74a1.27,1.27,0,0,1,.14-.53,1.07,1.07,0,0,1,1-.67,1.26,1.26,0,0,1,.6.17,1.14,1.14,0,0,1,.58,1.05c0,.33-.09.71-.13,1.1Q158.23,247.37,157.88,249.43Z" fill="#e0e0e0"/>
  <path d="M171.77,238.64h5.68a1.32,1.32,0,0,1,.62.15,1.16,1.16,0,0,1,.6,1.06,2.41,2.41,0,0,1,0,.38c-.12.47-.24,1-.38,1.39a16.07,16.07,0,0,1-3.56,6.42,6.71,6.71,0,0,1-4.83,2.51,4,4,0,0,1-.69,0,5.48,5.48,0,0,1-3.85-2.79,12.63,12.63,0,0,1-1.69-6.82,18.63,18.63,0,0,1,.67-4.87,16.25,16.25,0,0,1,3.36-6.57,6.91,6.91,0,0,1,5.11-2.71,4.8,4.8,0,0,1,2.14.49,7,7,0,0,1,3.32,4.19,1.25,1.25,0,0,1,.13.57,1.17,1.17,0,0,1-.17.61,1.11,1.11,0,0,1-1,.6,1.19,1.19,0,0,1-1.16-.82v-.11a6.79,6.79,0,0,0-.7-1.4,3,3,0,0,0-4.59-.93,10,10,0,0,0-3.08,4.45,16.63,16.63,0,0,0-1.4,6.4,11.69,11.69,0,0,0,1,5,3.3,3.3,0,0,0,3,2.22,4,4,0,0,0,2.79-1.64,15.11,15.11,0,0,0,2.91-5.28h-4.07c-.88-.14-1.4-.6-1.4-1.39a1.45,1.45,0,0,1,.12-.42A1.28,1.28,0,0,1,171.77,238.64Z" fill="#e0e0e0"/>
  <path d="M96.71,110.15l1.4,2.43a16.13,16.13,0,0,0,6.46,6.46l2.42,1.39-2.42,1.4a16.11,16.11,0,0,0-6.46,6.45l-1.4,2.43-1.39-2.43a16.3,16.3,0,0,0-6.46-6.45l-2.43-1.4L88.86,119a16.38,16.38,0,0,0,6.46-6.46Z" fill="#ebebeb"/>
  <path d="M127,291.28l1.39,2.43a16.19,16.19,0,0,0,6.46,6.46l2.43,1.39-2.43,1.4a16.13,16.13,0,0,0-6.46,6.46L127,311.84l-1.33-2.42a16,16,0,0,0-6.46-6.46l-2.42-1.4,2.42-1.39a16.13,16.13,0,0,0,6.46-6.46Z" fill="#ebebeb"/>
  <path d="M221.82,142l.41.74a5,5,0,0,0,2,2l.74.39-.74.41a5.08,5.08,0,0,0-2,2l-.41.74-.4-.74a5,5,0,0,0-1.95-2l-.74-.41.74-.39a5,5,0,0,0,1.95-2Z" fill="#e0e0e0"/>
  <path d="M80,289.89l.5.92A6.11,6.11,0,0,0,83,293.26l.92.51-.92.51a6.19,6.19,0,0,0-2.46,2.46l-.5.92-.5-.92A6.13,6.13,0,0,0,77,294.28l-.92-.51.92-.51a6,6,0,0,0,2.46-2.45Z" fill="#e0e0e0"/>
  <path d="M166.88,282.91l.5.92a6.19,6.19,0,0,0,2.46,2.46l.92.5-.92.5a6.32,6.32,0,0,0-2.46,2.46l-.5.92-.5-.92a6.46,6.46,0,0,0-2.46-2.46l-.92-.5.92-.5a6.32,6.32,0,0,0,2.46-2.46Z" fill="#e0e0e0"/>
  <path d="M160.34,84.26l.48.89a6.09,6.09,0,0,0,2.38,2.37l.89.49-.89.49a5.9,5.9,0,0,0-2.38,2.37l-.48.89-.49-.89a5.94,5.94,0,0,0-2.37-2.37l-.9-.49.9-.49a6.07,6.07,0,0,0,2.37-2.37Z" fill="#e0e0e0"/>
  <path d="M101.25,156a3.7,3.7,0,0,1-.13.74l-.47,2.1-1.79,7.64c-1.51,6.46-3.44,15.34-5.27,25.35s-3.2,19-4.08,25.55c-.43,3.21-.78,5.85-1,7.78l-.29,2.13A2.56,2.56,0,0,1,88,228a2.36,2.36,0,0,1,0-.75c0-.57.08-1.27.15-2.13.15-1.84.42-4.52.79-7.81.76-6.6,2-15.68,3.84-25.66s3.86-18.93,5.5-25.33c.81-3.22,1.5-5.82,2-7.59l.6-2.05A3.11,3.11,0,0,1,101.25,156Z" fill="#e0e0e0"/>
  <path d="M219.82,230.81a9.81,9.81,0,0,1-.79-1.71c-.44-1.12-1.08-2.79-1.84-4.76-1.5-4.05-3.5-9.67-5.58-15.92s-3.76-12-4.93-16.12c-.59-2.08-1-3.77-1.33-4.94a11.46,11.46,0,0,1-.39-1.83,9.09,9.09,0,0,1,.66,1.76c.41,1.28.93,2.92,1.56,4.85,1.28,4.12,3.08,9.77,5.12,16.06s4,11.89,5.35,16c.66,1.94,1.2,3.57,1.62,4.84A8.8,8.8,0,0,1,219.82,230.81Z" fill="#e0e0e0"/>
  <path d="M190.75,90.54a13.17,13.17,0,0,0-1.4.51,11.91,11.91,0,0,0-6.88,8,10.92,10.92,0,0,0,1.58,8.45,11.18,11.18,0,0,0,3.68,3.56,11.8,11.8,0,0,0,5.19,1.63c3.88.32,8-.86,12.32-1.66a30.71,30.71,0,0,1,26.84,8,28.29,28.29,0,0,1,7.77,12.71,31.28,31.28,0,0,1,.85,13.87,28,28,0,0,1-1.75,6.27,26,26,0,0,1-2.87,5.44,29.3,29.3,0,0,1-7.77,7.73,30.43,30.43,0,0,1-14.86,5.27,22.55,22.55,0,0,1-5.8-.21h1.51a30.56,30.56,0,0,0,4.28-.11A30.87,30.87,0,0,0,228,164.58a28.84,28.84,0,0,0,7.56-7.66,25.86,25.86,0,0,0,2.79-5.31,27.44,27.44,0,0,0,1.66-6.15,30.73,30.73,0,0,0-.87-13.58,27.7,27.7,0,0,0-7.58-12.38,30.17,30.17,0,0,0-26.23-7.82c-4.3.77-8.37,2-12.47,1.61a12.36,12.36,0,0,1-5.51-1.72,11.91,11.91,0,0,1-3.75-3.76A11.39,11.39,0,0,1,182.07,99a11.66,11.66,0,0,1,3.54-5.79,11.36,11.36,0,0,1,3.68-2.26A6.2,6.2,0,0,1,190.75,90.54Z" fill="#e0e0e0"/>
  <path d="M189.13,92.64h0a11.06,11.06,0,0,1,4.8-14.89l9.84-5,10.1,19.69-9.86,5A11.07,11.07,0,0,1,189.13,92.64Z" fill="#ebebeb"/>
  <path d="M254.3,65.3a4.19,4.19,0,1,1-4.19-4.18h.07A4.19,4.19,0,0,1,254.3,65.3Z" fill="#e0e0e0"/>
  <polygon points="827.85 41.17 827.85 191.17 612.43 191.17 604.66 42.21 827.85 41.17" fill="#e0e0e0"/>
  <rect x="604.65" y="42.23" width="215.44" height="148.63" fill="#fff"/>
  <path d="M821,191.72H603.8V41.36H821ZM605.53,190H819.22V43.09H605.53Z" fill="#e0e0e0"/>
  <rect x="627.99" y="60.68" width="168.77" height="111.7" fill="#fff"/>
  <path d="M796.76,60.68H784.28l-34.78.11L628,61l.42-.42V172.26h0l-.45-.45H796.72l-.33.62c0-34,.16-61.89.19-81.28v-.28c0,19.45.11,47.4.19,81.46v.36H627.19v-.26h0V60.34h.42l121.78.2,34.66.11h11.53Z" fill="#e0e0e0"/>
  <path d="M676.81,207.92a14.57,14.57,0,0,1,2.4,1.57c1.44,1,3.41,2.54,5.53,4.24s4,3.3,5.32,4.54a13.25,13.25,0,0,1,2.05,2,14.18,14.18,0,0,1-2.27-1.73c-1.56-1.24-3.41-2.72-5.43-4.35L679,209.87A13.07,13.07,0,0,1,676.81,207.92Z" fill="#e0e0e0"/>
  <path d="M820.08,42.23a127,127,0,0,1-11.38,9.58,122.6,122.6,0,0,1-11.94,8.87,123.52,123.52,0,0,1,11.38-9.56A121.19,121.19,0,0,1,820.08,42.23Z" fill="#e0e0e0"/>
  <path d="M819.93,190.87l-24-19.46" fill="#fff"/>
  <path d="M795.91,171.41a131.18,131.18,0,0,1,12.29,9.38,132.33,132.33,0,0,1,11.73,10.08,129,129,0,0,1-12.31-9.39A133.63,133.63,0,0,1,795.91,171.41Z" fill="#e0e0e0"/>
  <path d="M676.81,305.67a155.51,155.51,0,0,1,15.14-12,78.42,78.42,0,0,1-7.39,6.22A79.37,79.37,0,0,1,676.81,305.67Z" fill="#e0e0e0"/>
  <path d="M724.19,83.23a34.47,34.47,0,0,0-20.59.83,26.47,26.47,0,0,0-6.27,3.19c-6.45,4.61-18.16,13.87-18.47,32.2s10.5,23.36,15.59,25.13,44.44-.41,44.44-.41,15.94-8.38,14.56-24.37C752.3,106.07,743.81,88.41,724.19,83.23Z" fill="#e0e0e0"/>
  <path d="M693.19,138.78s-.78,9.68,3.46,13.13,13.06,5,20.14,4.82,18-1.73,20.35-6.71,2.77-11.52,2.17-12.37-9.55-9-24.27-7.87S693.19,138.78,693.19,138.78Z" fill="#f5f5f5"/>
  <g opacity="0.4">
    <path d="M733.21,100.68A18.13,18.13,0,1,1,714.64,83h0A18.13,18.13,0,0,1,733.21,100.68Z" fill="#fff"/>
  </g>
  <g opacity="0.4">
    <path d="M679.91,129.11a23.25,23.25,0,0,0,8.39-13.87,22.52,22.52,0,0,0-3.36-15.6s-5.62,9.22-6,17.45C678.54,125.81,679.91,129.11,679.91,129.11Z" fill="#fff"/>
  </g>
  <g opacity="0.4">
    <path d="M752.93,127.37a23.37,23.37,0,0,1-9.07-13.43,20.58,20.58,0,0,1,2.22-15.06A49.93,49.93,0,0,1,753,115.24C754.54,124,752.93,127.37,752.93,127.37Z" fill="#fff"/>
  </g>
  <path d="M468.31,595.89l-.94,23.56,14.35.25a8.69,8.69,0,0,0,6.51-2.77l7.33-7.86a9.54,9.54,0,0,1,7.18-3l24.64.53-5-16.65Z" fill="#f7a48b"/>
  <path d="M467.05,627l.32-7.55,14.35.25a8.69,8.69,0,0,0,6.51-2.77l7.33-7.86a9.54,9.54,0,0,1,7.18-3l24.64.53,3.77,8.49-21.95.27a9.43,9.43,0,0,0-6.13,2.35l-9.74,8.54a9.48,9.48,0,0,1-7,2.33Z" fill="#e6e7e8"/>
  <path d="M467.05,627s-2.51,13.19,2.83,14.45l64.2.27a6.22,6.22,0,0,0,5.63-8.92l-8.56-17.74-21.95.27a9.43,9.43,0,0,0-6.13,2.35l-9.74,8.54a9.48,9.48,0,0,1-7,2.33Z" fill="#000000" data-primary="true"/>
  <polygon points="283.36 598.37 283.36 600.61 292.95 618.51 345.06 617.55 344.42 601.24 285.28 591.33 283.36 598.37" fill="#f7a48b"/>
  <polygon points="283.36 600.61 276.65 605.4 292 628.42 346.34 624.26 345.06 617.55 292.95 618.51 283.36 600.61" fill="#e6e7e8"/>
  <path d="M276.65,605.4l-36.44,27.49s-2.88,5.76,2.87,6.72l99.11-.31a4.16,4.16,0,0,0,4.15-4.16V624.26L292,628.42Z" fill="#000000" data-primary="true"/>
  <path d="M464.9,338.83l48,115.79a36.32,36.32,0,0,1,2.55,10l13.44,125.66S511,601.47,461.67,598L448,489.64a28.84,28.84,0,0,0-1.35-5.81c-4.26-12.44-21.67-61.12-36.15-72a7,7,0,0,0-8.1-.18c-5.69,3.87-17.66,15.7-36.65,51.92a43.52,43.52,0,0,0-4.83,17l-8.79,119.89s-25.54,13-72.07-3.14c0,0-3.85-112.65,8.75-144.14l72.06-114Z" fill="#4d4d4d" data-secondary="true"/>
  <path d="M525.11,330.1s-34.41,6.28-62.83-38.34L460.78,276l31.32-17.76,8.74,12.27h0L511,284.82l0,.05s5.5-30.87,17.72-42.17l22.46,9.55S562.7,325.2,525.11,330.1Z" fill="#f7a48b"/>
  <path d="M511,284.82a35.23,35.23,0,0,0-1.39,8.56,38.21,38.21,0,0,0,1.29,10.56.39.39,0,0,1-.12.42c-.6.46-1.82.09-2.24-.05-17.5-5.55-8.85-30.45-7.72-33.76Z" fill="#f29079"/>
  <ellipse cx="526.76" cy="245.72" rx="6.51" ry="4.38" fill="#f7a48b"/>
  <path d="M550.73,242.26,524.3,229.42c7.2-7.59,7.07-13.64,5.41-17.61-1.56-3.75-6.36-6.82-10.42-6.57-4.22.26-7,3-8.72,5.73a19,19,0,0,0-2.72,10.49c.26,16.77,11.33,20,11.33,20l26.12,12.16a6.31,6.31,0,0,0,5.43-11.4Zm-26.8-22.34c-1.14,4.29-4.55,7.12-7.63,6.31s-4.65-5-3.52-9.26,4.55-7.12,7.63-6.31S525.06,215.62,523.93,219.92Z" fill="#4d4d4d" data-secondary="true"/>
  <path d="M536.57,228.41s-7-6.11-12.27,1c0,0-3.19,4.73-1.89,8.77a3,3,0,0,0,5.15,1.1,11.82,11.82,0,0,0,1.94-3.1s-4.47,9.9,4.48,6.36c0,0-2.74,7.18,10.63,1.7.13-.05.25.1.15.2-1.29,1.24-4.17,4.58-.29,6.47,0,0,8.14,2.91,8.92-7.79a6.51,6.51,0,0,0-2.3-5.42C548.89,235.85,544.67,232.86,536.57,228.41Z" fill="#f7a48b"/>
  <line x1="528.68" y1="238.08" x2="531.74" y2="231.12" fill="none" stroke="#f29079" stroke-linecap="round" stroke-linejoin="round"/>
  <line x1="533.98" y1="242.55" x2="538.46" y2="236.66" fill="none" stroke="#f29079" stroke-linecap="round" stroke-linejoin="round"/>
  <line x1="544.61" y1="244.25" x2="548.47" y2="240.43" fill="none" stroke="#f29079" stroke-linecap="round" stroke-linejoin="round"/>
  <path d="M388.82,206.52s-52.66-1.75-57.93,44.59A198.92,198.92,0,0,0,333,297.8l28.78-8.08,27,54.77,78.28-5.62L460.78,276l36.16-20s-20.71-53-80-50.55Z" fill="#000000" data-primary="true"/>
  <path d="M333.32,297.55c1.85-1.34,11.67-7.9,32.37-12.62l6.42-32.32,4.37,36.63s-10.08-3.08-43.09,8.42C333.32,297.68,333.26,297.6,333.32,297.55Z" opacity="0.2"/>
  <polygon points="496.94 256.02 460.09 250.73 452.32 265.04 460.78 276.03 496.94 256.02" opacity="0.2"/>
  <path d="M714.65,161.15a46.19,46.19,0,0,1-46.19,46.2,46.87,46.87,0,0,1-6.76-.49c-.55-.09-1.09-.17-1.63-.27A46.18,46.18,0,0,1,622.28,162h0c0-.27,0-.55,0-.82v-.48A46.2,46.2,0,0,1,668.46,115c1.5,0,3,.08,4.48.21.51.06,1,.11,1.55.18a46.22,46.22,0,0,1,40.13,43.91c0,.42,0,.84,0,1.26C714.65,160.73,714.65,160.94,714.65,161.15Z" fill="#000000" data-primary="true"/>
  <g opacity="0.2">
    <path d="M714.64,160.52A184.92,184.92,0,0,1,663,168.27c-4.76,0-9.16-.22-13.19-.57l-1.22-.11A107.49,107.49,0,0,1,622.28,162h0c0-.27,0-.55,0-.82v-.48c3.49,1.32,12.55,4.35,26.39,5.71l1.21.11c15.93,1.42,37.9.61,64.75-7.23C714.63,159.68,714.64,160.1,714.64,160.52Z"/>
  </g>
  <g opacity="0.2">
    <path d="M649.83,167.7c-.28,11.67,2.68,25,11.87,39.16-.55-.09-1.09-.17-1.63-.27-8.89-14.08-11.77-27.36-11.46-39,0-.41,0-.82,0-1.21A68.46,68.46,0,0,1,654.89,141a90.64,90.64,0,0,1,18.05-25.85c.51.06,1,.11,1.55.18A89.81,89.81,0,0,0,656,141.57a67.57,67.57,0,0,0-6.12,24.92C649.84,166.89,649.83,167.3,649.83,167.7Z"/>
  </g>
  <path d="M768.9,436.18a46.63,46.63,0,0,1-.81,8.65c-.07.41-.16.83-.26,1.25a46.21,46.21,0,0,1-45.13,36.29l-1.41,0c-.55,0-1.1,0-1.64-.08a46.2,46.2,0,0,1-43.14-46.09,45.69,45.69,0,0,1,1-9.57c.07-.42.17-.82.27-1.23A46.19,46.19,0,0,1,722.7,390c.76,0,1.52,0,2.26.06.52,0,1,.05,1.55.09A46.2,46.2,0,0,1,768.9,436.18Z" fill="#000000" data-primary="true"/>
  <g opacity="0.2">
    <path d="M768.09,444.83c-.07.41-.16.83-.26,1.25-2,.13-4.68.27-8.1.27a160.44,160.44,0,0,1-19.45-1.26h0c-.4,0-.81-.09-1.21-.15a210,210,0,0,1-61.54-18.33c.07-.42.17-.82.27-1.23a208.87,208.87,0,0,0,61.44,18.35l1.21.16A142.5,142.5,0,0,0,768.09,444.83Z"/>
  </g>
  <g opacity="0.2">
    <path d="M740.44,443.89c-.05.39-.1.79-.16,1.2h0c-1.73,11.86-7,24.83-19,37.26-.55,0-1.1,0-1.64-.08,12.23-12.43,17.66-25.43,19.41-37.33.06-.41.12-.81.17-1.21a68.24,68.24,0,0,0-1.15-23.26A90.71,90.71,0,0,0,725,390.05c.52,0,1,.05,1.55.09a93.09,93.09,0,0,1,12.76,30.06A69.44,69.44,0,0,1,740.44,443.89Z"/>
  </g>
  <path d="M647.79,312.27a32.89,32.89,0,0,1-10.64,24.26c-.44.41-.9.82-1.36,1.2a33,33,0,0,1-52-14.1,12.1,12.1,0,0,1-.41-1.2A33,33,0,0,1,599.57,283a15.4,15.4,0,0,1,1.41-.7,33,33,0,0,1,43.66,15.89c.18.38.36.77.53,1.16A32.87,32.87,0,0,1,647.79,312.27Z" fill="#000000" data-primary="true"/>
  <g opacity="0.2">
    <path d="M645.17,299.36a90.83,90.83,0,0,1-13.89,9.7c-.35.2-.71.41-1.08.6a115.09,115.09,0,0,1-46.38,14,12.1,12.1,0,0,1-.41-1.2,114,114,0,0,0,46.17-13.82l1.08-.61a89.05,89.05,0,0,0,14-9.8C644.82,298.58,645,299,645.17,299.36Z"/>
  </g>
  <g opacity="0.2">
    <path d="M637.15,336.53c-.44.41-.9.82-1.36,1.2a44.43,44.43,0,0,0-5.59-28.07c-.19-.35-.4-.71-.62-1.05-9.2-15.22-25.33-23.45-30-25.6a15.4,15.4,0,0,1,1.41-.7c5.69,2.74,20.82,11,29.68,25.69.22.35.43.69.62,1.06A45.34,45.34,0,0,1,637.15,336.53Z"/>
  </g>
  <path d="M392.21,185.86l-4.27,22.26a6.29,6.29,0,0,0,1.52,5.43,31.46,31.46,0,0,0,17,9.39,5.36,5.36,0,0,0,4.06-.81l9.91-6.7L416.79,212l.69-10.83-12.37-16.68-7.57-2.92-6.36,1.72Z" fill="#f9b499"/>
  <path d="M417.14,201.67s-6.36,0-13.24-6.36c0,0-4.81,12.55,12.89,16.68Z" fill="#f7a48b"/>
  <rect x="396.04" y="132.69" width="48.66" height="69.13" rx="21.99" fill="#f9b499"/>
  <path d="M421.21,142.09S435,128,441.68,166.25l7.05.34s5.7-51-38.93-47c0,0-11.07-4.7-20.8,7.72,0,0-29.2,9.39-18.8,35.23l27.52,10.74,11.08-19.46S409.13,135.71,421.21,142.09Z" fill="#4d4d4d" data-secondary="true"/>
  <circle cx="386.98" cy="175.98" r="11.41" fill="#f9b499"/>
  <path d="M381.56,152.81l30,.22,1.31,27.64s-6.51,2.16-10.24-3a18.77,18.77,0,0,0-9.67-7.31,18.51,18.51,0,0,0-9.9-.53Z" fill="#e6e7e8"/>
  <ellipse cx="378.5" cy="164.02" rx="8.29" ry="12.51" fill="#000000" data-primary="true"/>
  <ellipse cx="378.08" cy="163.8" rx="3.7" ry="6.2" opacity="0.2"/>
  <path d="M454.69,159.72l0,12.4a9.26,9.26,0,0,1-9.28,9.23L416,181.28a8.81,8.81,0,0,1-1-.06,8.56,8.56,0,0,1-1.63-.33,8.7,8.7,0,0,1-2.51-1.21,6.75,6.75,0,0,1-1-.8,8.58,8.58,0,0,1-1.88-2.35,8.46,8.46,0,0,1-.54-1.14,9.18,9.18,0,0,1-.63-3.37l0-12.4a9.25,9.25,0,0,1,9.26-9.23l29.38.06a9.28,9.28,0,0,1,1.06.07,8.87,8.87,0,0,1,3,.89,7.11,7.11,0,0,1,1.16.67,8.1,8.1,0,0,1,1.5,1.3,7.71,7.71,0,0,1,.78,1A9.08,9.08,0,0,1,454.69,159.72Z" fill="#000000" data-primary="true"/>
  <g opacity="0.2">
    <path d="M446.52,150.52l-38.56,26a8.46,8.46,0,0,1-.54-1.14l37-24.94h1A9.28,9.28,0,0,1,446.52,150.52Z"/>
  </g>
  <g opacity="0.2">
    <path d="M450.67,152.08l-39.83,27.6a6.75,6.75,0,0,1-1-.8l39.67-27.47A7.11,7.11,0,0,1,450.67,152.08Z"/>
  </g>
  <g opacity="0.2">
    <path d="M453,154.33l-38,26.89a8.56,8.56,0,0,1-1.63-.33l38.82-27.51A7.71,7.71,0,0,1,453,154.33Z"/>
  </g>
  <path d="M466.84,263.45l-22.3-19.12c8.89-5.52,10.3-11.4,9.7-15.66-.56-4-4.42-8.21-8.41-9s-7.51,1.1-9.89,3.33a19.05,19.05,0,0,0-5.3,9.45c-4,16.28,5.88,22.26,5.88,22.26l22.18,18.4a6.32,6.32,0,0,0,8.14-9.66Zm-29.23-24.24c-2.77-1.57-3.24-6-1.05-9.85s6.21-5.73,9-4.17,3.24,6,1,9.85S440.38,240.78,437.61,239.21Z" fill="#4d4d4d" data-secondary="true"/>
  <path d="M462.63,252.37l-3.12,3.85a8.39,8.39,0,0,0-1.78,4.16c-1.48,11.56-6.77,16.69-9.44,18.58a12.27,12.27,0,0,0-2.93,2.91c-15.79,22.47-38.64,49.63-38.64,49.63-16.86,17.9-31.6,17.2-31.6,17.2-38.61.7-42.12-50.9-42.12-50.9,27.89-9.89,39.29-9.53,43.48-8.56a4.91,4.91,0,0,0,4.37-1.2,210,210,0,0,1,43.78-29.56l6.67-10.54c6.32-11.93,11.92-8.42,11.92-8.42l18.89,10.25A1.71,1.71,0,0,1,462.63,252.37Z" fill="#f7a48b"/>
  <path d="M379,289.37s-11.24,7-17.56,22.82c0,0-7,12.64-11.58-2.81C349.85,309.38,345.64,298.5,379,289.37Z" fill="#f29079"/>
  <path d="M459.51,256.22a8.39,8.39,0,0,0-1.78,4.16c-1.48,11.56-6.77,16.69-9.44,18.58,0,0,6.47-9.41,3.92-19.16a1.57,1.57,0,0,1,1.1-1.89Z" fill="#f29079"/>
  <line x1="443.68" y1="240.61" x2="440.07" y2="245.2" fill="none" stroke="#f29079" stroke-linecap="round" stroke-linejoin="round"/>
  <line x1="449.76" y1="243.74" x2="446.51" y2="247.87" fill="none" stroke="#f29079" stroke-linecap="round" stroke-linejoin="round"/>
  <line x1="456.23" y1="247.14" x2="452.34" y2="251.03" fill="none" stroke="#f29079" stroke-linecap="round" stroke-linejoin="round"/>
  <ellipse cx="649.5" cy="167.09" rx="5.75" ry="6.69" fill="#4d4d4d" data-secondary="true"/>
  <ellipse cx="630.24" cy="308.55" rx="4.11" ry="4.78" fill="#4d4d4d" data-secondary="true"/>
  <ellipse cx="739.33" cy="444.18" rx="5.75" ry="6.69" fill="#4d4d4d" data-secondary="true"/>
  <polygon points="71.3 536.6 107.31 545.12 143.44 536.6 143.44 533.08 71.47 533.08 71.3 536.6" fill="#4d4d4d" data-secondary="true"/>
  <path d="M103.72,471.61s-1.63-37.2,2.46-55.6a18.64,18.64,0,0,1,4.26-8.35c8.33-9.37,34.18-37.92,56.14-56.34,0,0-20.57-4.28-40,7.43v12.57l-4.29-10s-24,14.29-21.71,53.43l1.14,37.71Z" fill="#000000" data-primary="true"/>
  <g opacity="0.6">
    <path d="M103.72,471.61s-1.63-37.2,2.46-55.6a18.64,18.64,0,0,1,4.26-8.35c8.33-9.37,34.18-37.92,56.14-56.34,0,0-20.57-4.28-40,7.43v12.57l-4.29-10s-24,14.29-21.71,53.43l1.14,37.71Z" fill="#fff"/>
  </g>
  <path d="M144.44,502.61a37.29,37.29,0,0,1-30.69,36.7h0a37.32,37.32,0,0,1-43.87-36.7,37.17,37.17,0,0,1,9.38-24.74l40.39-.28,15.06-.11A37.16,37.16,0,0,1,144.44,502.61Z" fill="#000000" data-primary="true"/>
  <rect x="67.36" y="519.27" width="7.93" height="117.56" rx="3.97" fill="#4d4d4d" data-secondary="true"/>
  <rect x="102.9" y="519.27" width="7.93" height="117.56" rx="3.97" fill="#4d4d4d" data-secondary="true"/>
  <rect x="139.03" y="519.27" width="7.93" height="117.56" rx="3.97" fill="#4d4d4d" data-secondary="true"/>
  <g opacity="0.2">
    <path d="M144.44,502.61a37.29,37.29,0,0,1-30.69,36.7c25.47-24.61,7.09-59.51,5.89-61.72l15.06-.11A37.16,37.16,0,0,1,144.44,502.61Z"/>
  </g>
  <path d="M99.28,477.74l0-3.38a16.34,16.34,0,0,0-4.89-11.85L37.91,407s27.17-3.43,40.1,7.39l.27,14.77,4.48-11.61s24.27,10.29,22.16,60.15Z" fill="#000000" data-primary="true"/>
  <path d="M112.58,477.64l3.09-25.27a8.57,8.57,0,0,1,2.24-4.81C126,438.9,158,405,176.58,389.61c0,0-21.43-2-40.57,7.71l-.57,13.43-4.29-10.29S110.29,412.18,109.72,453l0,24.62Z" fill="#000000" data-primary="true"/>
  <g opacity="0.5">
    <path d="M99.28,477.74l0-3.38a16.34,16.34,0,0,0-4.89-11.85L37.91,407s27.17-3.43,40.1,7.39l.27,14.77,4.48-11.61s24.27,10.29,22.16,60.15Z" fill="#fff"/>
    <path d="M112.58,477.64l3.09-25.27a8.57,8.57,0,0,1,2.24-4.81C126,438.9,158,405,176.58,389.61c0,0-21.43-2-40.57,7.71l-.57,13.43-4.29-10.29S110.29,412.18,109.72,453l0,24.62Z" fill="#fff"/>
  </g>
</svg>